<svg width="143" height="20" viewBox="0 0 143 20" fill="none" xmlns="http://www.w3.org/2000/svg">
<path d="M0.171875 19V0.818181H5.10795V15.0227H12.4588V19H0.171875ZM18.3248 19.2131C17.4548 19.2131 16.6854 19.071 16.0166 18.7869C15.3537 18.4969 14.8329 18.0589 14.4541 17.473C14.0753 16.8871 13.8859 16.1413 13.8859 15.2358C13.8859 14.4901 14.0132 13.8538 14.2677 13.3271C14.5222 12.7944 14.8773 12.3594 15.333 12.022C15.7887 11.6847 16.3184 11.4272 16.9221 11.2496C17.5318 11.0721 18.1887 10.9567 18.893 10.9034C19.6565 10.8442 20.2691 10.7732 20.7307 10.6903C21.1983 10.6016 21.5357 10.4802 21.7428 10.3263C21.95 10.1665 22.0535 9.95644 22.0535 9.69602V9.66051C22.0535 9.3054 21.9174 9.03314 21.6452 8.84375C21.3729 8.65436 21.0237 8.55966 20.5976 8.55966C20.13 8.55966 19.7483 8.66323 19.4523 8.87038C19.1623 9.07161 18.9877 9.38234 18.9285 9.80256H14.4186C14.4778 8.97396 14.7412 8.21046 15.2087 7.51207C15.6822 6.80777 16.3717 6.2455 17.2773 5.82528C18.1828 5.39915 19.3132 5.18608 20.6686 5.18608C21.6452 5.18608 22.5211 5.30149 23.2964 5.53232C24.0718 5.75722 24.7317 6.07386 25.2762 6.48224C25.8207 6.88471 26.235 7.35819 26.5191 7.9027C26.8091 8.44129 26.9541 9.02723 26.9541 9.66051V19H22.3731V17.0824H22.2666C21.9943 17.5914 21.6629 18.0027 21.2723 18.3164C20.8876 18.6301 20.4466 18.858 19.9495 19C19.4582 19.142 18.9167 19.2131 18.3248 19.2131ZM19.9229 16.1236C20.2957 16.1236 20.6449 16.0466 20.9704 15.8928C21.3019 15.7389 21.5712 15.5169 21.7783 15.2269C21.9855 14.9369 22.089 14.5848 22.089 14.1705V13.0341C21.9588 13.0874 21.8198 13.1377 21.6718 13.185C21.5297 13.2324 21.3759 13.2768 21.2101 13.3182C21.0503 13.3596 20.8787 13.3981 20.6952 13.4336C20.5177 13.4691 20.3312 13.5017 20.1359 13.5312C19.7571 13.5904 19.4464 13.6881 19.2037 13.8242C18.967 13.9544 18.7894 14.1172 18.6711 14.3125C18.5586 14.5019 18.5024 14.715 18.5024 14.9517C18.5024 15.3305 18.6356 15.6205 18.9019 15.8217C19.1682 16.023 19.5086 16.1236 19.9229 16.1236ZM34.1962 11.3295V19H29.2956V5.36364H33.9476V7.95597H34.0897C34.3856 7.09186 34.9064 6.41418 35.6522 5.92294C36.4038 5.4317 37.2798 5.18608 38.28 5.18608C39.2447 5.18608 40.0822 5.40803 40.7924 5.85192C41.5086 6.28989 42.062 6.89358 42.4526 7.663C42.8491 8.43241 43.0444 9.31132 43.0385 10.2997V19H38.138V11.3295C38.1439 10.6548 37.9722 10.1251 37.623 9.74041C37.2798 9.35571 36.8004 9.16335 36.1848 9.16335C35.7824 9.16335 35.4302 9.25213 35.1284 9.42969C34.8324 9.60133 34.6046 9.8499 34.4448 10.1754C34.285 10.495 34.2021 10.8797 34.1962 11.3295ZM50.3938 19.1776C49.4232 19.1776 48.5295 18.9231 47.7127 18.4141C46.9019 17.9051 46.2508 17.1327 45.7596 16.0969C45.2743 15.0612 45.0316 13.7562 45.0316 12.1818C45.0316 10.5365 45.2861 9.19886 45.7951 8.16903C46.31 7.1392 46.9729 6.38459 47.7837 5.90518C48.6005 5.42578 49.4587 5.18608 50.3583 5.18608C51.033 5.18608 51.6249 5.30445 52.1339 5.54119C52.6429 5.77202 53.069 6.08274 53.4123 6.47337C53.7556 6.85807 54.016 7.28125 54.1935 7.7429H54.2646V0.818181H59.1651V19H54.3001V16.7628H54.1935C54.0041 17.2244 53.7319 17.6387 53.3768 18.0057C53.0276 18.3667 52.6014 18.6538 52.0984 18.8668C51.6012 19.074 51.033 19.1776 50.3938 19.1776ZM52.2049 15.4134C52.6547 15.4134 53.0394 15.2831 53.359 15.0227C53.6845 14.7564 53.9331 14.3835 54.1048 13.9041C54.2823 13.4188 54.3711 12.8447 54.3711 12.1818C54.3711 11.5071 54.2823 10.93 54.1048 10.4506C53.9331 9.96532 53.6845 9.59541 53.359 9.34091C53.0394 9.08049 52.6547 8.95028 52.2049 8.95028C51.7551 8.95028 51.3704 9.08049 51.0508 9.34091C50.7371 9.59541 50.4944 9.96532 50.3228 10.4506C50.1571 10.93 50.0742 11.5071 50.0742 12.1818C50.0742 12.8565 50.1571 13.4366 50.3228 13.9219C50.4944 14.4013 50.7371 14.7712 51.0508 15.0316C51.3704 15.2861 51.7551 15.4134 52.2049 15.4134ZM66.4805 19V0.818181H74.3285C75.6779 0.818181 76.8587 1.08452 77.8707 1.61719C78.8828 2.14986 79.67 2.89856 80.2322 3.86328C80.7945 4.82801 81.0756 5.95549 81.0756 7.24574C81.0756 8.54782 80.7856 9.67531 80.2056 10.6282C79.6315 11.5811 78.8236 12.315 77.782 12.8299C76.7462 13.3448 75.5359 13.6023 74.1509 13.6023H69.4634V9.76705H73.1566C73.7366 9.76705 74.2308 9.66643 74.6392 9.4652C75.0535 9.25805 75.3701 8.96508 75.5891 8.58629C75.814 8.2075 75.9265 7.76065 75.9265 7.24574C75.9265 6.7249 75.814 6.28101 75.5891 5.91406C75.3701 5.54119 75.0535 5.2571 74.6392 5.06179C74.2308 4.86056 73.7366 4.75994 73.1566 4.75994H71.4165V19H66.4805ZM86.1471 19.2131C85.2771 19.2131 84.5077 19.071 83.8389 18.7869C83.176 18.4969 82.6552 18.0589 82.2764 17.473C81.8976 16.8871 81.7082 16.1413 81.7082 15.2358C81.7082 14.4901 81.8354 13.8538 82.0899 13.3271C82.3444 12.7944 82.6995 12.3594 83.1553 12.022C83.611 11.6847 84.1407 11.4272 84.7444 11.2496C85.354 11.0721 86.011 10.9567 86.7153 10.9034C87.4788 10.8442 88.0914 10.7732 88.553 10.6903C89.0206 10.6016 89.3579 10.4802 89.5651 10.3263C89.7722 10.1665 89.8758 9.95644 89.8758 9.69602V9.66051C89.8758 9.3054 89.7397 9.03314 89.4674 8.84375C89.1952 8.65436 88.846 8.55966 88.4198 8.55966C87.9523 8.55966 87.5705 8.66323 87.2746 8.87038C86.9846 9.07161 86.81 9.38234 86.7508 9.80256H82.2409C82.3 8.97396 82.5634 8.21046 83.031 7.51207C83.5045 6.80777 84.194 6.2455 85.0995 5.82528C86.0051 5.39915 87.1355 5.18608 88.4909 5.18608C89.4674 5.18608 90.3434 5.30149 91.1187 5.53232C91.894 5.75722 92.5539 6.07386 93.0985 6.48224C93.643 6.88471 94.0573 7.35819 94.3414 7.9027C94.6314 8.44129 94.7764 9.02723 94.7764 9.66051V19H90.1954V17.0824H90.0889C89.8166 17.5914 89.4852 18.0027 89.0945 18.3164C88.7098 18.6301 88.2689 18.858 87.7718 19C87.2805 19.142 86.739 19.2131 86.1471 19.2131ZM87.7451 16.1236C88.118 16.1236 88.4672 16.0466 88.7927 15.8928C89.1241 15.7389 89.3934 15.5169 89.6006 15.2269C89.8077 14.9369 89.9113 14.5848 89.9113 14.1705V13.0341C89.7811 13.0874 89.642 13.1377 89.4941 13.185C89.352 13.2324 89.1981 13.2768 89.0324 13.3182C88.8726 13.3596 88.701 13.3981 88.5175 13.4336C88.3399 13.4691 88.1535 13.5017 87.9582 13.5312C87.5794 13.5904 87.2687 13.6881 87.026 13.8242C86.7893 13.9544 86.6117 14.1172 86.4933 14.3125C86.3809 14.5019 86.3247 14.715 86.3247 14.9517C86.3247 15.3305 86.4578 15.6205 86.7242 15.8217C86.9905 16.023 87.3308 16.1236 87.7451 16.1236ZM97.1179 19V5.36364H101.876V7.95597H102.018C102.267 6.99716 102.661 6.29581 103.199 5.85192C103.744 5.40803 104.38 5.18608 105.108 5.18608C105.321 5.18608 105.531 5.20384 105.738 5.23935C105.951 5.26894 106.156 5.31333 106.351 5.37251V9.55398C106.108 9.47112 105.809 9.40897 105.454 9.36754C105.099 9.32611 104.794 9.3054 104.54 9.3054C104.06 9.3054 103.628 9.41489 103.244 9.63388C102.865 9.84695 102.566 10.1488 102.347 10.5394C102.128 10.9241 102.018 11.3769 102.018 11.8977V19H97.1179ZM113.746 19.2486C112.266 19.2486 111 18.9556 109.946 18.3697C108.893 17.7778 108.085 16.9551 107.523 15.9016C106.96 14.8422 106.679 13.6141 106.679 12.2173C106.679 10.8205 106.96 9.59541 107.523 8.5419C108.085 7.48248 108.893 6.6598 109.946 6.07386C111 5.48201 112.266 5.18608 113.746 5.18608C115.084 5.18608 116.241 5.42874 117.217 5.91406C118.2 6.39347 118.96 7.0741 119.499 7.95597C120.038 8.83191 120.31 9.86174 120.316 11.0455H115.77C115.705 10.3293 115.498 9.7848 115.149 9.41193C114.806 9.03314 114.362 8.84375 113.817 8.84375C113.391 8.84375 113.018 8.96804 112.699 9.21662C112.379 9.45928 112.13 9.82919 111.953 10.3263C111.775 10.8176 111.686 11.4361 111.686 12.1818C111.686 12.9276 111.775 13.549 111.953 14.0462C112.13 14.5374 112.379 14.9073 112.699 15.1559C113.018 15.3986 113.391 15.5199 113.817 15.5199C114.178 15.5199 114.498 15.437 114.776 15.2713C115.054 15.0997 115.279 14.8511 115.451 14.5256C115.628 14.1941 115.735 13.7917 115.77 13.3182H120.316C120.298 14.5196 120.023 15.5672 119.49 16.4609C118.957 17.3487 118.203 18.0353 117.226 18.5206C116.256 19.0059 115.096 19.2486 113.746 19.2486ZM128.872 19.2486C127.416 19.2486 126.161 18.9704 125.108 18.4141C124.06 17.8518 123.252 17.0469 122.684 15.9993C122.122 14.9458 121.84 13.6851 121.84 12.2173C121.84 10.8087 122.125 9.57765 122.693 8.52415C123.261 7.47064 124.063 6.65092 125.099 6.06499C126.134 5.47905 127.357 5.18608 128.765 5.18608C129.795 5.18608 130.727 5.34588 131.562 5.66548C132.396 5.98508 133.109 6.44969 133.701 7.0593C134.293 7.663 134.749 8.3969 135.068 9.26101C135.388 10.1251 135.548 11.0987 135.548 12.1818V13.3182H123.367V10.6193H131.038C131.032 10.2287 130.931 9.88542 130.736 9.58949C130.547 9.28764 130.289 9.05386 129.964 8.88814C129.644 8.7165 129.28 8.63068 128.872 8.63068C128.475 8.63068 128.111 8.7165 127.78 8.88814C127.448 9.05386 127.182 9.28468 126.981 9.58061C126.785 9.87654 126.682 10.2228 126.67 10.6193V13.5312C126.67 13.9692 126.762 14.3598 126.945 14.7031C127.129 15.0464 127.392 15.3157 127.735 15.511C128.079 15.7063 128.493 15.804 128.978 15.804C129.316 15.804 129.623 15.7566 129.902 15.6619C130.186 15.5672 130.428 15.4311 130.63 15.2536C130.831 15.0701 130.979 14.8511 131.073 14.5966H135.548C135.394 15.5436 135.03 16.3662 134.456 17.0646C133.882 17.7571 133.121 18.2957 132.174 18.6804C131.233 19.0592 130.132 19.2486 128.872 19.2486ZM142.448 0.818181V19H137.548V0.818181H142.448Z" fill="white"/>
</svg>
