<svg width="92" height="88" viewBox="0 0 92 88" fill="none" xmlns="http://www.w3.org/2000/svg">
<path d="M55.4306 34.2689C55.7785 33.6629 56.5528 33.4533 57.1588 33.8011L63.2566 37.3009C65.8615 31.8292 63.8485 25.1882 58.5046 22.1212C53.1608 19.0542 46.4112 20.6661 43.0007 25.6753L49.4461 29.3745C50.0183 29.7029 50.2157 30.4323 49.8873 31.0045L49.8157 31.1293C49.4873 31.7014 48.7579 31.8989 48.1857 31.5705L41.7083 27.8529L40.6812 29.6425L47.0945 33.3233C47.7005 33.6711 47.9101 34.4454 47.5623 35.0514C47.2145 35.6575 46.4401 35.8671 45.8341 35.5193L39.4208 31.8384L38.3937 33.628L44.9193 37.3733C45.4647 37.6864 45.6531 38.3821 45.34 38.9275L45.2122 39.1504C44.8991 39.6958 44.2033 39.8841 43.6579 39.5711L37.1323 35.8258L36.1052 37.6154L42.6807 41.3893C43.1976 41.686 43.3761 42.3453 43.0794 42.8622L42.8932 43.1866C42.5966 43.7035 41.9373 43.882 41.4204 43.5853L34.8449 39.8114L33.6653 41.8666C30.4449 47.4778 32.384 54.6356 37.9934 57.855C43.6046 61.0755 50.7624 59.1363 53.9818 53.5269L55.1613 51.4718L48.9423 47.9025C48.3862 47.5833 48.1941 46.8735 48.5133 46.3174L48.6176 46.1355C48.9368 45.5794 49.6466 45.3873 50.2027 45.7065L56.4217 49.2758L57.4488 47.4862L51.1942 43.8964C50.6576 43.5885 50.4723 42.9039 50.7803 42.3674L50.9255 42.1143C51.2335 41.5778 51.918 41.3925 52.4545 41.7004L58.7092 45.2902L59.7363 43.5006L53.585 39.9702C52.9932 39.6305 52.7872 38.8748 53.1278 38.2813L53.1575 38.2296C53.4971 37.6378 54.2528 37.4317 54.8464 37.7724L61.0012 41.3049L62.0283 39.5153L55.9002 35.9981C55.2924 35.6493 55.0828 34.875 55.4306 34.2689Z" fill="#FF7F26"/>
<path d="M63.3642 48.2363L59.9383 46.2701C59.4482 45.9887 58.8225 46.1581 58.5412 46.6483C58.2599 47.1384 58.4292 47.7641 58.9194 48.0454L59.6948 48.4904L56.0048 54.9197C52.1204 61.6877 43.4532 64.0354 36.6834 60.15C29.9154 56.2656 27.5677 47.5985 31.4531 40.8287L35.1432 34.3993L35.8365 34.7973C36.3267 35.0786 36.9523 34.9093 37.2337 34.4191C37.515 33.9289 37.3456 33.3033 36.8555 33.022L33.4296 31.0557C32.9394 30.7744 32.3138 30.9438 32.0324 31.4339C31.7511 31.9241 31.9205 32.5497 32.4106 32.8311L33.3696 33.3814L29.6796 39.8108C25.4044 47.2597 27.7223 56.7178 34.795 61.3884L31.0292 67.9496L24.2933 64.0836C23.8031 63.8023 23.1775 63.9717 22.8962 64.4619C22.6149 64.952 22.7842 65.5776 23.2744 65.859L38.5947 74.6518C39.0848 74.9331 39.7105 74.7638 39.9918 74.2736C40.2731 73.7834 40.1038 73.1578 39.6136 72.8765L32.8064 68.9696L36.5721 62.4083C44.1709 66.1582 53.5074 63.3914 57.7836 55.9407L61.4737 49.5114L62.3506 50.0147C62.8408 50.296 63.4664 50.1267 63.7478 49.6365C64.0291 49.1463 63.8544 48.5176 63.3642 48.2363Z" fill="#FF7F26"/>
<path d="M74.7548 54.6233C79.294 53.0227 82.9376 49.7505 85.0155 45.4092C87.0887 41.0783 87.3542 36.1976 85.7651 31.6674C85.7364 31.5866 85.6777 31.5207 85.6002 31.4833C85.5227 31.446 85.4344 31.4419 85.3536 31.4706L84.4209 31.7996C84.2535 31.8585 84.1647 32.0424 84.2231 32.2106C87.2069 40.7206 82.716 50.0846 74.2101 53.084C74.1293 53.1127 74.0634 53.1714 74.0261 53.2489C73.9971 53.3098 73.9881 53.3774 73.9991 53.4433C74.0023 53.4606 74.0064 53.4785 74.0133 53.4955L74.3423 54.4282C74.4031 54.5943 74.5875 54.6822 74.7548 54.6233Z" fill="#FF7F26"/>
<path d="M80.0717 43.0425C81.5117 40.0328 81.6983 36.6398 80.5959 33.4905C80.5672 33.4096 80.5084 33.3437 80.4309 33.3064C80.3534 33.269 80.2652 33.2649 80.1834 33.2931L79.2507 33.6221C79.0834 33.681 78.9945 33.8649 79.0535 34.0322C81.0325 39.6922 78.0423 45.9179 72.3879 47.9121C72.3071 47.9408 72.2412 47.9995 72.2038 48.077C72.1749 48.1379 72.1659 48.2055 72.1769 48.2714C72.1801 48.2887 72.1842 48.3066 72.1911 48.3236L72.52 49.2563C72.5799 49.4242 72.7637 49.513 72.9316 49.4532C76.0908 48.3397 78.6254 46.063 80.0717 43.0425Z" fill="#FF7F26"/>
<path d="M75.8258 35.1732C75.7971 35.0924 75.7388 35.0256 75.6613 34.9882C75.5838 34.9509 75.4947 34.9462 75.4138 34.9749L74.4811 35.3039C74.3138 35.3629 74.2255 35.5458 74.2839 35.7141C75.3358 38.7438 73.7317 42.0766 70.7067 43.1432C70.6259 43.1719 70.56 43.2306 70.5226 43.3081C70.4937 43.369 70.4847 43.4366 70.4957 43.5025C70.4989 43.5198 70.503 43.5377 70.5099 43.5547L70.8388 44.4874C70.8987 44.6553 71.0825 44.7441 71.2504 44.6843C75.1235 43.3177 77.1763 39.0514 75.8258 35.1732Z" fill="#FF7F26"/>
<path d="M22.1023 24.404C21.1947 19.6773 22.1821 14.8806 24.8824 10.8966C27.5761 6.92183 31.6564 4.2305 36.3696 3.31745C36.4539 3.30145 36.5404 3.31893 36.6117 3.36703C36.6831 3.41512 36.7312 3.48921 36.7472 3.5735L36.9336 4.54479C36.9671 4.71901 36.8532 4.88846 36.6784 4.92288C27.8253 6.63926 22.0054 15.2405 23.7062 24.0979C23.7222 24.1822 23.7047 24.2687 23.6567 24.34C23.6187 24.3957 23.5649 24.4376 23.5024 24.4613C23.4858 24.4673 23.4684 24.4728 23.4502 24.4754L22.4789 24.6619C22.3048 24.6931 22.1359 24.5783 22.1023 24.404Z" fill="#FF7F26"/>
<path d="M29.4209 13.9721C31.2932 11.2104 34.1288 9.33779 37.4042 8.70108C37.4885 8.68508 37.575 8.70256 37.6464 8.75066C37.7177 8.79876 37.7658 8.87284 37.7827 8.95765L37.9691 9.92894C38.0026 10.1032 37.8887 10.2726 37.7145 10.3061C31.8291 11.4524 27.9619 17.1748 29.0922 23.063C29.1082 23.1473 29.0908 23.2338 29.0427 23.3052C29.0047 23.3609 28.9509 23.4027 28.8884 23.4264C28.8719 23.4324 28.8544 23.4379 28.8362 23.4406L27.8649 23.627C27.6898 23.66 27.5203 23.5461 27.4873 23.371C26.8551 20.0815 27.5424 16.7445 29.4209 13.9721Z" fill="#FF7F26"/>
<path d="M38.3566 13.6682C38.4408 13.6523 38.5279 13.6688 38.5992 13.7169C38.6706 13.765 38.7195 13.8396 38.7355 13.9239L38.922 14.8952C38.9555 15.0694 38.8421 15.238 38.6673 15.2724C35.5207 15.8924 33.4521 18.9587 34.0571 22.1086C34.0731 22.1929 34.0557 22.2794 34.0076 22.3508C33.9696 22.4065 33.9158 22.4483 33.8533 22.4721C33.8367 22.4781 33.8193 22.4835 33.8011 22.4862L32.8298 22.6726C32.6547 22.7056 32.4852 22.5917 32.4522 22.4166C31.6784 18.383 34.3267 14.4585 38.3566 13.6682Z" fill="#FF7F26"/>
</svg>
