<svg width="89" height="78" viewBox="0 0 89 78" fill="none" xmlns="http://www.w3.org/2000/svg">
<g clip-path="url(#clip0_438_1849)">
<path d="M26.99 23.15L24.13 49.84L26.99 77.1L29.82 49.84L26.99 23.15Z" fill="#FF7F26"/>
<path d="M53.95 50.14L27.26 47.28L0 50.14L27.26 52.97L53.95 50.14Z" fill="#FF7F26"/>
<path d="M26.98 56.8001C30.6693 56.8001 33.66 53.8093 33.66 50.1201C33.66 46.4308 30.6693 43.4401 26.98 43.4401C23.2908 43.4401 20.3 46.4308 20.3 50.1201C20.3 53.8093 23.2908 56.8001 26.98 56.8001Z" fill="#FF7F26"/>
<path d="M69.1805 14.9L67.1105 34.19L69.1805 53.9L71.2305 34.19L69.1805 14.9Z" fill="#FF7F26"/>
<path d="M88.67 34.41L69.38 32.35L49.67 34.41L69.38 36.46L88.67 34.41Z" fill="#FF7F26"/>
<path d="M64.3401 34.4001C64.3401 31.7301 66.5001 29.5701 69.1701 29.5701C71.8401 29.5701 74.0001 31.7301 74.0001 34.4001C74.0001 37.0701 71.8401 39.2301 69.1701 39.2301C66.5001 39.2301 64.3401 37.0701 64.3401 34.4001Z" fill="#FF7F26"/>
<path d="M43.58 0L42 14.74L43.58 29.8L45.14 14.74L43.58 0Z" fill="#FF7F26"/>
<path d="M58.47 14.91L43.73 13.33L28.67 14.91L43.73 16.47L58.47 14.91Z" fill="#FF7F26"/>
<path d="M39.88 14.9C39.88 12.86 41.53 11.21 43.57 11.21C45.61 11.21 47.26 12.86 47.26 14.9C47.26 16.94 45.61 18.59 43.57 18.59C41.53 18.59 39.88 16.94 39.88 14.9Z" fill="#FF7F26"/>
<path d="M3.51001 23.15C3.51001 21.13 5.15001 19.49 7.17001 19.49C9.19001 19.49 10.83 21.13 10.83 23.15C10.83 25.17 9.19001 26.81 7.17001 26.81C5.15001 26.81 3.51001 25.17 3.51001 23.15Z" fill="#FF7F26"/>
<path d="M58.4697 64.9C58.4697 62.88 60.1097 61.24 62.1297 61.24C64.1497 61.24 65.7897 62.88 65.7897 64.9C65.7897 66.92 64.1497 68.56 62.1297 68.56C60.1097 68.56 58.4697 66.92 58.4697 64.9Z" fill="#FF7F26"/>
<path d="M16.17 14.9C16.17 13.8 17.07 12.9 18.17 12.9C19.27 12.9 20.17 13.8 20.17 14.9C20.17 16 19.27 16.9 18.17 16.9C17.07 16.9 16.17 16 16.17 14.9Z" fill="#FF7F26"/>
<path d="M39.5703 64.9C39.5703 63.8 40.4703 62.9 41.5703 62.9C42.6703 62.9 43.5703 63.8 43.5703 64.9C43.5703 66 42.6703 66.9 41.5703 66.9C40.4703 66.9 39.5703 66 39.5703 64.9Z" fill="#FF7F26"/>
<path d="M10.83 7.89C10.83 7.05 11.51 6.38 12.34 6.38C13.18 6.38 13.85 7.06 13.85 7.89C13.85 8.73 13.17 9.4 12.34 9.4C11.5 9.4 10.83 8.72 10.83 7.89Z" fill="#FF7F26"/>
<path d="M52.4404 71.89C52.4404 71.05 53.1204 70.38 53.9504 70.38C54.7804 70.38 55.4604 71.06 55.4604 71.89C55.4604 72.73 54.7804 73.4 53.9504 73.4C53.1204 73.4 52.4404 72.72 52.4404 71.89Z" fill="#FF7F26"/>
</g>
<defs>
<clipPath id="clip0_438_1849">
<rect width="88.67" height="77.1" fill="white"/>
</clipPath>
</defs>
</svg>
